<svg width="38" height="38" viewBox="0 0 38 38" fill="none" xmlns="http://www.w3.org/2000/svg">
<g clip-path="url(#clip0)">
<path d="M35.4848 13.5519H24.448V2.51506C24.448 1.12628 23.322 0.000244141 21.9332 0.000244141H16.0665C14.6777 0.000244141 13.5517 1.12621 13.5517 2.51506V13.5515H2.51482C1.12596 13.5515 0 14.6774 0 16.0662V21.9339C0 23.3227 1.12596 24.4487 2.51482 24.4487H13.5517V35.4851C13.5517 36.8738 14.6776 37.9998 16.0665 37.9998H21.9337C23.3225 37.9998 24.4485 36.8739 24.4485 35.4851V24.4487H35.4854C36.8741 24.4487 38.0001 23.3228 38.0001 21.9339V16.0662C37.9996 14.6774 36.8741 13.5519 35.4848 13.5519Z" fill="white"/>
</g>
<defs>
<clipPath id="clip0">
<rect width="38" height="38" fill="white"/>
</clipPath>
</defs>
</svg>
