<svg width="38" height="38" viewBox="0 0 38 38" fill="none" xmlns="http://www.w3.org/2000/svg">
<path d="M19 0C11.096 0 4.66602 6.43 4.66602 14.333C4.66602 25.712 17.462 37.143 18.007 37.625C18.292 37.875 18.646 38 19 38C19.368 38 19.736 37.865 20.023 37.596C20.566 37.088 33.334 25.028 33.334 14.334C33.334 6.431 26.902 0 19 0ZM19 21.168C15.225 21.168 12.166 18.107 12.166 14.335C12.166 10.563 15.225 7.502 19 7.502C22.773 7.502 25.832 10.562 25.832 14.335C25.832 18.108 22.773 21.168 19 21.168Z" fill="white"/>
</svg>
