<svg width="198" height="77" viewBox="0 0 198 77" fill="none" xmlns="http://www.w3.org/2000/svg">
<path d="M114.568 40.896C115.624 40.896 116.456 41.2 117.064 41.808C117.704 42.384 118.024 43.168 118.024 44.16V52.512C118.024 54.112 117.896 55.344 117.64 56.208C117.416 57.04 116.984 57.696 116.344 58.176C115.736 58.656 114.808 59.072 113.56 59.424C112.312 59.744 110.92 59.984 109.384 60.144C107.88 60.336 106.472 60.432 105.16 60.432C101.48 60.432 98.28 59.744 95.56 58.368C92.872 56.96 90.808 54.96 89.368 52.368C87.928 49.744 87.208 46.64 87.208 43.056C87.208 39.536 87.928 36.48 89.368 33.888C90.808 31.264 92.856 29.248 95.512 27.84C98.168 26.432 101.272 25.728 104.824 25.728C107.064 25.728 109.064 26 110.824 26.544C112.616 27.056 114.28 27.856 115.816 28.944C116.36 29.328 116.744 29.744 116.968 30.192C117.224 30.64 117.352 31.216 117.352 31.92C117.352 32.912 117.08 33.76 116.536 34.464C115.992 35.136 115.336 35.472 114.568 35.472C114.056 35.472 113.608 35.408 113.224 35.28C112.872 35.12 112.408 34.864 111.832 34.512C110.648 33.872 109.528 33.408 108.472 33.12C107.448 32.832 106.328 32.688 105.112 32.688C102.072 32.688 99.8 33.536 98.296 35.232C96.824 36.928 96.088 39.536 96.088 43.056C96.088 46.672 96.856 49.36 98.392 51.12C99.96 52.848 102.344 53.712 105.544 53.712C107.08 53.712 108.6 53.552 110.104 53.232V46.944H106.648C105.592 46.944 104.776 46.688 104.2 46.176C103.624 45.632 103.336 44.88 103.336 43.92C103.336 42.96 103.624 42.224 104.2 41.712C104.776 41.168 105.592 40.896 106.648 40.896H114.568ZM127.487 60.288C126.271 60.288 125.247 59.968 124.415 59.328C123.615 58.656 123.215 57.664 123.215 56.352V39.84C123.215 38.528 123.615 37.552 124.415 36.912C125.247 36.24 126.271 35.904 127.487 35.904C128.703 35.904 129.711 36.24 130.511 36.912C131.343 37.552 131.759 38.528 131.759 39.84V56.352C131.759 57.664 131.343 58.656 130.511 59.328C129.711 59.968 128.703 60.288 127.487 60.288ZM127.487 32.544C126.047 32.544 124.895 32.176 124.031 31.44C123.199 30.672 122.783 29.664 122.783 28.416C122.783 27.168 123.199 26.176 124.031 25.44C124.895 24.704 126.047 24.336 127.487 24.336C128.895 24.336 130.031 24.704 130.895 25.44C131.759 26.176 132.191 27.168 132.191 28.416C132.191 29.664 131.759 30.672 130.895 31.44C130.063 32.176 128.927 32.544 127.487 32.544ZM150.443 32.256C149.291 32.352 148.475 32.72 147.995 33.36C147.547 33.968 147.323 34.784 147.323 35.808V36.384H149.963C152.523 36.384 153.803 37.424 153.803 39.504C153.803 41.616 152.523 42.672 149.963 42.672H147.323V56.256C147.323 57.568 146.907 58.56 146.075 59.232C145.275 59.904 144.267 60.24 143.051 60.24C141.835 60.24 140.811 59.904 139.979 59.232C139.179 58.56 138.779 57.568 138.779 56.256V42.672H137.387C134.827 42.672 133.547 41.616 133.547 39.504C133.547 37.424 134.827 36.384 137.387 36.384H138.779C138.843 33.312 139.755 30.912 141.515 29.184C143.307 27.424 145.723 26.432 148.763 26.208L150.011 26.112C150.267 26.08 150.603 26.064 151.019 26.064C152.395 26.064 153.387 26.32 153.995 26.832C154.603 27.344 154.907 28.08 154.907 29.04C154.907 30 154.619 30.752 154.043 31.296C153.467 31.808 152.683 32.096 151.691 32.16L150.443 32.256ZM168.027 54.192C170.171 54.32 171.243 55.28 171.243 57.072C171.243 58.192 170.811 59.024 169.947 59.568C169.083 60.112 167.851 60.336 166.251 60.24L164.907 60.144C162.027 59.92 159.835 59.056 158.331 57.552C156.859 56.016 156.123 53.888 156.123 51.168V42.672H154.73C152.17 42.672 150.89 41.616 150.89 39.504C150.89 37.424 152.17 36.384 154.73 36.384H156.123V33.264C156.123 32.048 156.507 31.088 157.275 30.384C158.043 29.648 159.083 29.28 160.395 29.28C161.707 29.28 162.747 29.648 163.515 30.384C164.283 31.088 164.667 32.048 164.667 33.264V36.384H167.307C169.867 36.384 171.147 37.424 171.147 39.504C171.147 41.616 169.867 42.672 167.307 42.672H164.667V51.888C164.667 52.496 164.843 53.008 165.195 53.424C165.579 53.84 166.059 54.064 166.635 54.096L168.027 54.192ZM189.819 38.304C190.171 37.504 190.651 36.912 191.259 36.528C191.867 36.144 192.539 35.952 193.275 35.952C194.331 35.952 195.275 36.304 196.107 37.008C196.939 37.712 197.355 38.56 197.355 39.552C197.355 40.096 197.227 40.624 196.971 41.136L184.251 66.624C183.867 67.424 183.355 68.016 182.715 68.4C182.107 68.784 181.435 68.976 180.699 68.976C179.643 68.976 178.699 68.624 177.867 67.92C177.067 67.248 176.667 66.416 176.667 65.424C176.667 64.88 176.811 64.32 177.099 63.744L180.219 57.456L172.059 41.136C171.803 40.56 171.675 40.048 171.675 39.6C171.675 38.576 172.123 37.712 173.019 37.008C173.915 36.272 174.923 35.904 176.043 35.904C176.811 35.904 177.515 36.112 178.155 36.528C178.827 36.912 179.339 37.504 179.691 38.304L184.779 49.344L189.819 38.304Z" fill="#4C4981"/>
<path d="M75 37.5C75 58.2109 58.2109 75 37.5 75C16.7891 75 0 58.2109 0 37.5C0 16.7891 16.7891 0 37.5 0C58.2109 0 75 16.7891 75 37.5Z" fill="#B17BEC"/>
<path d="M75 37.5C75 35.6787 74.8672 33.8882 74.6166 32.1362L61.8336 19.2604L53.3203 10.8398L45.7031 25.4202L36.6211 16.3382L13.1664 29.9126L34.3277 51.0733L15.8913 59.8412L30.3703 74.3202C32.6792 74.7648 35.0618 75 37.5 75C58.2109 75 75 58.2109 75 37.5Z" fill="#4C4981"/>
<path d="M37.5 20.0661H21.6797V10.8398L35.8469 15.8901C36.838 16.2437 37.5 17.1822 37.5 18.235V20.0661Z" fill="#67647E"/>
<path d="M37.5 20.0661H53.3203V10.8398L39.1531 15.8901C38.162 16.2437 37.5 17.1822 37.5 18.235V20.0661Z" fill="#67647E"/>
<path d="M15.8913 22.1495H59.1087V59.8412H15.8913V22.1495Z" fill="#35323E"/>
<path d="M37.5 22.1495H59.1087V59.8412H37.5V22.1495Z" fill="#35323E"/>
<path d="M13.1664 19.2604H61.8336V29.9126H13.1664V19.2604Z" fill="#464353"/>
<path d="M37.5 19.2604H61.8336V29.9126H37.5V19.2604Z" fill="#444053"/>
<path d="M30.4201 19.2604H44.5805V59.8412H30.4201V19.2604Z" fill="#FEC2BE"/>
<path d="M37.5 19.2604H44.5799V59.8412H37.5V19.2604Z" fill="#A1616A"/>
</svg>
