<svg width="75" height="75" viewBox="0 0 75 75" fill="none" xmlns="http://www.w3.org/2000/svg">
<g clip-path="url(#clip0)">
<path d="M56.9871 13.5963C55.3361 12.0244 52.942 11.5132 50.7929 12.2737C50.1852 12.4768 49.7426 13.0036 49.6475 13.6372L49.1702 16.9167C48.4465 21.87 44.2082 25.5487 39.2023 25.5686H32.3843C31.602 25.5688 30.9203 26.1016 30.7309 26.8606L25.6175 47.3143C25.3896 48.2277 25.9454 49.1528 26.8588 49.3806C26.9935 49.4142 27.1319 49.4313 27.2707 49.4313H35.7931C36.5755 49.4311 37.2571 48.8984 37.4465 48.1394L40.5317 35.7955H47.1791C52.282 35.8125 56.7336 32.3344 57.9514 27.3788L59.2093 22.3369C60.0949 19.2356 59.2461 15.898 56.9871 13.5963Z" fill="#03A9F4"/>
<path d="M1.70406 69.8851C0.762702 69.885 -0.00031949 69.1216 1.00358e-07 68.1803C1.00358e-07 68.0414 0.0170982 67.903 0.0506552 67.7683L1.75519 60.9845V60.9129L3.45972 54.1325C3.64908 53.3735 4.33077 52.8407 5.11312 52.8406H9.44932C11.8028 52.8401 13.7109 54.7474 13.7115 57.1009C13.7115 57.4494 13.6689 57.7966 13.5845 58.1347L13.1583 59.8393C12.6842 61.7368 10.9792 63.0679 9.02331 63.0676H4.74144L3.36081 68.5935C3.17113 69.3535 2.48753 69.8866 1.70406 69.8851ZM5.59363 59.6582H9.02299C9.41401 59.6571 9.75405 59.3901 9.84801 59.0106L10.2742 57.3061C10.391 56.8521 10.1174 56.3893 9.66345 56.2727C9.59346 56.2546 9.52155 56.2456 9.44916 56.246H6.44582L5.59363 59.6582Z" fill="#283593"/>
<path d="M19.9319 69.8851H17.5047C14.8953 69.8857 12.7794 67.7709 12.7788 65.1614C12.7786 64.7749 12.8261 64.3897 12.9197 64.0149L13.1447 63.108C13.6492 61.0729 15.4797 59.6465 17.5763 59.6547H20.0035C22.6129 59.6592 24.7246 61.7782 24.7201 64.3877C24.7195 64.7723 24.6719 65.1553 24.5784 65.5283L24.3534 66.4351C23.8484 68.4653 22.0237 69.8889 19.9319 69.8851ZM16.2297 64.8432C16.0546 65.5486 16.4845 66.2622 17.1898 66.4374C17.2929 66.4629 17.3985 66.4759 17.5047 66.4762H19.9319C20.4574 66.4776 20.916 66.1203 21.0432 65.6103L21.2682 64.7034C21.4434 63.9981 21.0135 63.2844 20.3082 63.1093C20.2051 63.0837 20.0995 63.0708 19.9932 63.0705H17.5661C17.0405 63.069 16.5819 63.4263 16.4547 63.9364L16.2297 64.8432Z" fill="#283593"/>
<path d="M22.1579 69.8851C21.2166 69.8847 20.4537 69.1214 20.4539 68.18C20.4539 68.0412 20.471 67.9028 20.5045 67.7681L22.209 60.9501C22.4369 60.0361 23.3624 59.4797 24.2766 59.7075C25.1907 59.9354 25.7471 60.8609 25.5192 61.7751L23.8147 68.5931C23.625 69.3534 22.9414 69.8865 22.1579 69.8851Z" fill="#283593"/>
<path d="M42.6115 69.885C41.6702 69.8847 40.9073 69.1214 40.9075 68.18C40.9075 68.0412 40.9246 67.9028 40.9581 67.7681L42.6627 60.9843V60.9127L44.3672 54.1323C44.5566 53.3732 45.2382 52.8405 46.0206 52.8403H50.3568C52.7103 52.8399 54.6184 54.7472 54.619 57.1006C54.619 57.4491 54.5763 57.7964 54.492 58.1345L54.0658 59.839C53.5917 61.7366 51.8867 63.0677 49.9308 63.0674H45.6491L44.2684 68.5933C44.0786 69.3534 43.395 69.8865 42.6115 69.885ZM46.5011 59.6582H49.934C50.325 59.657 50.665 59.39 50.759 59.0105L51.1852 57.306C51.3018 56.852 51.0284 56.3892 50.5744 56.2726C50.5044 56.2545 50.4324 56.2456 50.3602 56.2459H47.3534L46.5011 59.6582Z" fill="#03A9F4"/>
<path d="M60.8394 69.885H58.4122C55.8028 69.8856 53.6869 67.7707 53.6863 65.1613C53.6861 64.7747 53.7336 64.3896 53.8272 64.0147L54.0522 63.1079C54.5567 61.0728 56.3871 59.6464 58.4838 59.6546H60.9109C63.5204 59.6539 65.6362 61.7688 65.6369 64.3783C65.637 64.7648 65.5896 65.1499 65.4959 65.5248L65.2709 66.4316C64.7665 68.4668 62.936 69.8931 60.8394 69.885ZM57.1372 64.8431C56.9621 65.5485 57.3919 66.2621 58.0973 66.4372C58.2003 66.4628 58.306 66.4757 58.4122 66.4761H60.8394C61.3649 66.4775 61.8235 66.1202 61.9507 65.6101L62.1757 64.7033C62.3509 63.998 61.921 63.2843 61.2157 63.1092C61.1126 63.0836 61.007 63.0707 60.9007 63.0704H58.4736C57.948 63.0689 57.4894 63.4262 57.3622 63.9363L57.1372 64.8431Z" fill="#03A9F4"/>
<path d="M63.0654 69.8851C62.124 69.8847 61.3612 69.1214 61.3613 68.18C61.3613 68.0412 61.3784 67.9028 61.412 67.7681L63.1165 60.9501C63.3444 60.0361 64.2699 59.4797 65.1841 59.7075C66.0981 59.9354 66.6545 60.8609 66.4267 61.7751L64.7221 68.5931C64.5325 69.3534 63.8489 69.8865 63.0654 69.8851Z" fill="#03A9F4"/>
<path d="M32.3849 68.1808C31.8147 68.1805 31.2826 67.8952 30.9667 67.4207L27.5578 62.3072C27.0353 61.5241 27.2467 60.4656 28.03 59.943C28.8133 59.4205 29.8716 59.6319 30.3941 60.4152L33.8031 65.5287C34.3264 66.3112 34.1164 67.3697 33.3341 67.8932C33.0531 68.0809 32.7227 68.181 32.3849 68.1808Z" fill="#283593"/>
<path d="M28.9754 73.2931C28.034 73.2928 27.2712 72.5293 27.2715 71.5879C27.2716 71.1896 27.4113 70.8038 27.6663 70.4977L36.1887 60.2708C36.7921 59.5478 37.8673 59.4508 38.5903 60.0542C39.3132 60.6576 39.4102 61.7329 38.8068 62.4558L30.2844 72.6827C29.9602 73.0702 29.4807 73.2937 28.9754 73.2931Z" fill="#283593"/>
<path d="M69.8833 69.8851C68.9419 69.8848 68.179 69.1215 68.1792 68.1801C68.1792 68.0413 68.1963 67.9029 68.2299 67.7682L71.6388 54.1324C71.8666 53.2183 72.7922 52.6619 73.7063 52.8898C74.6204 53.1177 75.1768 54.0432 74.9489 54.9574L71.54 68.5932C71.3505 69.3535 70.6669 69.8866 69.8833 69.8851Z" fill="#03A9F4"/>
<path d="M51.3591 4.65452C49.7214 2.77868 47.3519 1.70342 44.8617 1.70581H25.5669C24.7425 1.70581 24.0364 2.29578 23.8897 3.1069L17.0717 40.6054C16.9041 41.5317 17.5193 42.4184 18.4456 42.5861C18.5457 42.6041 18.6473 42.6132 18.7489 42.6132H28.9758C29.7582 42.6131 30.4399 42.0803 30.6292 41.3213L33.7177 28.9774H39.2027C45.9074 28.9511 51.5833 24.0219 52.5488 17.387L53.401 11.561C53.7524 9.07189 53.0076 6.55256 51.3591 4.65452Z" fill="#283593"/>
</g>
<defs>
<clipPath id="clip0">
<rect width="75" height="75" fill="white"/>
</clipPath>
</defs>
</svg>
