<svg width="142" height="47" viewBox="0 0 142 47" fill="none" xmlns="http://www.w3.org/2000/svg">
<g clip-path="url(#clip0)">
<path fill-rule="evenodd" clip-rule="evenodd" d="M29.1836 0H42.6055V13.4219H29.1836V0ZM31.5 2.3125H40.293V11.1055H31.5V2.3125ZM33.5977 4.41406H38.1914V9.00781H33.5977V4.41406ZM7.02344 7.26562H14.2813C20.2383 7.26562 25.1133 12.1406 25.1133 18.0977C25.1133 24.0547 20.2383 28.9258 14.2813 28.9258H7.02344V37.2617H0V12.543H7.02344V7.26562ZM7.02344 12.5703V23.6211H13.0195C16.0586 23.6211 18.543 21.1328 18.543 18.0977C18.543 15.0586 16.0586 12.5703 13.0195 12.5703H7.02344ZM29.1836 18.0352H36.2031V37.2617H29.1836V18.0352ZM73.5742 7.26562H80.832C86.7891 7.26562 91.6641 12.1406 91.6641 18.0977C91.6641 24.0547 86.7891 28.9258 80.832 28.9258H73.5742V37.2617H66.5508V12.543H73.5742V7.26562ZM73.5742 12.5703V23.6211H79.5703C82.6094 23.6211 85.0938 21.1328 85.0938 18.0977C85.0938 15.0586 82.6094 12.5703 79.5703 12.5703H73.5742ZM52.5195 13.9414C56.5117 13.9414 60.0508 15.8281 62.2578 18.7422L58.4453 22.5547C57.3906 20.5625 55.3945 19.2188 53.1055 19.2188C49.7188 19.2188 46.9727 22.1602 46.9727 25.7891C46.9727 29.4141 49.7188 32.3555 53.1055 32.3555C55.3945 32.3555 57.3906 31.0117 58.4453 29.0195L62.2578 32.8281C60.0508 35.7461 56.5117 37.6328 52.5195 37.6328C45.8281 37.6328 40.4062 32.3281 40.4062 25.7891C40.4062 19.2461 45.8281 13.9414 52.5195 13.9414ZM122.266 46.1797H129.156L141.773 14.2344H134.883L129.094 28.8867L123.309 14.2344H116.418L125.648 37.6094L122.266 46.1797ZM114.75 36.7812H108.379V35.0078C100.809 39.9492 94.4727 36.7148 93.7109 31.8398C92.8594 26.3906 96.1562 22.4375 109.008 23.5234C109.031 18.625 101.742 17.9844 96.7891 21.4375L94.4922 16.8438C103.578 11.9961 114.711 13.4766 114.75 21.5391V36.7812ZM109.215 27.1797H103.785C98.3516 27.1797 99.543 34.2461 104.727 33.1289C107.395 32.5547 109.047 30.7852 109.215 27.1797Z" fill="#21A73F"/>
</g>
<defs>
<clipPath id="clip0">
<rect width="141.8" height="46.2" fill="white"/>
</clipPath>
</defs>
</svg>
