<svg width="50" height="50" viewBox="0 0 50 50" fill="none" xmlns="http://www.w3.org/2000/svg">
<g clip-path="url(#clip0)">
<path d="M42.6738 7.32581C32.9064 -2.44181 17.0954 -2.44337 7.32646 7.32581C-2.44125 17.0934 -2.44271 32.9041 7.32646 42.6732C17.0939 52.4408 32.9048 52.4423 42.6738 42.6732C52.4415 32.9056 52.4429 17.0949 42.6738 7.32581ZM41.6291 39.1103C40.4613 38.066 39.2122 37.1419 37.8955 36.3455C38.7657 33.3392 39.2813 30.0311 39.4032 26.5923H46.7516C46.4194 31.2275 44.6384 35.5756 41.6291 39.1103ZM3.24854 26.5923H10.5969C10.7188 30.0311 11.2344 33.3392 12.1047 36.3455C10.788 37.1419 9.53881 38.066 8.37102 39.1103C5.36176 35.5756 3.58089 31.2275 3.24854 26.5923ZM8.37112 10.8887C9.53891 11.933 10.7881 12.8571 12.1048 13.6536C11.2345 16.6598 10.7189 19.9679 10.597 23.4067H3.24854C3.58089 18.7716 5.36176 14.4235 8.37112 10.8887ZM23.4074 13.9828C20.8097 13.797 18.305 13.1572 15.983 12.1017C17.3334 8.62416 19.823 4.45325 23.4074 3.41962V13.9828ZM23.4074 17.1743V23.4068H13.7839C13.8941 20.4979 14.3063 17.7045 14.9918 15.1487C17.6306 16.3023 20.4685 16.9912 23.4074 17.1743ZM23.4074 26.5923V32.8248C20.4685 33.008 17.6306 33.6969 14.9918 34.8504C14.3063 32.2946 13.8941 29.5013 13.7839 26.5923H23.4074ZM23.4074 36.0163V46.5794C19.8232 45.5458 17.3336 41.3754 15.983 37.8974C18.305 36.8419 20.8097 36.2021 23.4074 36.0163ZM26.5929 36.0163C29.1905 36.2021 31.6952 36.8419 34.0173 37.8974C32.6667 41.3751 30.1772 45.5458 26.5929 46.5794V36.0163ZM26.5929 32.8248V26.5923H36.2164C36.1061 29.5013 35.6939 32.2946 35.0085 34.8504C32.3697 33.6969 29.5318 33.008 26.5929 32.8248ZM26.5929 23.4068V17.1743C29.5318 16.9912 32.3697 16.3023 35.0085 15.1487C35.6939 17.7045 36.1061 20.4979 36.2164 23.4068H26.5929ZM26.5929 13.9828V3.41972C30.1772 4.45335 32.6668 8.62426 34.0173 12.1018C31.6952 13.1572 29.1905 13.797 26.5929 13.9828ZM33.7472 5.00992C35.786 5.90275 37.6882 7.11338 39.3934 8.61548C38.5817 9.3311 37.7253 9.97999 36.831 10.5603C36.0368 8.59391 35.0223 6.68297 33.7472 5.00992ZM13.1692 10.5603C12.2749 9.97999 11.4185 9.3311 10.6068 8.61548C12.3119 7.11338 14.2141 5.90275 16.253 5.00992C14.9778 6.68317 13.9633 8.59411 13.1692 10.5603ZM13.1693 39.4388C13.9633 41.4051 14.978 43.3162 16.2531 44.9892C14.2142 44.0964 12.312 42.8857 10.6069 41.3836C11.4185 40.668 12.275 40.0191 13.1693 39.4388ZM36.831 39.4388C37.7253 40.0191 38.5817 40.668 39.3934 41.3835C37.6882 42.8856 35.786 44.0963 33.7472 44.9891C35.0222 43.3162 36.0368 41.4052 36.831 39.4388ZM39.4033 23.4068C39.2814 19.968 38.7658 16.6598 37.8955 13.6536C39.2122 12.8572 40.4613 11.9331 41.6292 10.8888C44.6385 14.4235 46.4194 18.7716 46.7517 23.4068H39.4033Z" fill="white"/>
</g>
<defs>
<clipPath id="clip0">
<rect width="50" height="50" fill="white"/>
</clipPath>
</defs>
</svg>
