<svg width="50" height="50" viewBox="0 0 50 50" fill="none" xmlns="http://www.w3.org/2000/svg">
<g clip-path="url(#clip0)">
<path d="M30.8822 0C28.8578 0 26.9545 0.788333 25.5231 2.2198L25.2108 2.53216L24.8984 2.21971C23.467 0.788333 21.5637 0 19.5395 0C15.3606 0 11.9607 3.3999 11.9607 7.57882V8.36422C11.9607 10.3886 12.749 12.292 14.1805 13.7231L25.2109 24.7535L36.2412 13.7232C37.6728 12.2918 38.4611 10.3886 38.4611 8.36422V7.57882C38.461 3.3999 35.0611 0 30.8822 0V0ZM35.5198 8.36412C35.5198 9.60284 35.0374 10.7675 34.1615 11.6433L25.2108 20.5941L16.2601 11.6433C15.3841 10.7676 14.9019 9.60294 14.9019 8.36422V7.57882C14.9019 5.02167 16.9824 2.94118 19.5395 2.94118C20.7782 2.94118 21.9429 3.42363 22.8188 4.29941L25.2108 6.69137L27.6028 4.29941C28.4787 3.42353 29.6433 2.94118 30.8822 2.94118C33.4393 2.94118 35.5198 5.02167 35.5198 7.57882V8.36412Z" fill="white"/>
<path d="M48.4728 24.4671C46.6933 22.8015 43.9691 22.7571 42.1361 24.3633L31.8337 33.3926C31.402 30.3163 28.7526 27.9412 25.5591 27.9412H16.3832C14.046 27.9412 11.7497 28.7395 9.91657 30.1893L0.032547 37.8922V41.621L11.7292 32.5055L11.738 32.4986C13.0544 31.4563 14.7041 30.8824 16.3832 30.8824H25.5591C27.2773 30.8824 28.7015 32.1652 28.9238 33.8235H20.1306V36.7647H32.4485L44.0747 26.5753C44.7657 25.9698 45.7922 25.9866 46.4629 26.6143C46.829 26.9571 47.0291 27.422 47.0262 27.9235C47.0233 28.425 46.8178 28.8877 46.4477 29.2261L32.3048 42.1569H12.2372L3.01 50H7.55127L13.3183 45.0981H33.4468L48.4324 31.3969C49.4002 30.512 49.9597 29.2522 49.9673 27.9408C49.975 26.6293 49.4303 25.3632 48.4728 24.4671Z" fill="white"/>
</g>
<defs>
<clipPath id="clip0">
<rect width="50" height="50" fill="white"/>
</clipPath>
</defs>
</svg>
