<svg width="160" height="58" viewBox="0 0 160 58" fill="none" xmlns="http://www.w3.org/2000/svg">
<g clip-path="url(#clip0)">
<path d="M150.83 28.834H159.972C159.987 28.46 160 28.084 160 27.706C159.992 20.3655 157.074 13.3277 151.886 8.13448C146.698 2.94126 139.663 0.0161379 132.323 0V9.132C137.244 9.13942 141.961 11.0997 145.438 14.5823C148.914 18.0649 150.867 22.785 150.866 27.706C150.868 28.081 150.853 28.46 150.83 28.834Z" fill="#65A300"/>
<path d="M45.5674 42.6954C44.8224 42.5311 44.0953 42.2943 43.3965 41.9883C42.8641 41.7446 42.3463 41.4682 41.8477 41.1612C41.491 40.9482 41.1531 40.7055 40.8369 40.4361L40.5371 40.1363L42.3555 37.4434L42.6084 37.6993C42.8327 37.898 43.0688 38.0827 43.3154 38.253C43.6888 38.5253 44.0827 38.7678 44.4941 38.9781C45.6152 39.5095 46.8385 39.7909 48.0791 39.8023C49.5183 39.9355 50.952 39.4944 52.0674 38.5753C52.5 38.0961 52.8317 37.5349 53.043 36.9249C53.2543 36.3148 53.3404 35.6681 53.2969 35.024V33.5782C53.232 33.6698 53.1635 33.7589 53.0918 33.8453C52.8934 34.0671 52.6802 34.275 52.4531 34.4674C52.1182 34.7705 51.7516 35.0363 51.3594 35.2603C50.8483 35.5281 50.3051 35.7298 49.7432 35.8604C49.0326 36.0441 48.3013 36.1335 47.5674 36.127C45.3288 36.2132 43.1461 35.4153 41.4912 33.9053C40.6696 33.0719 40.0328 32.0742 39.624 30.9776C39.2152 29.881 39.0436 28.71 39.1191 27.5421C39.0721 26.3855 39.2629 25.2318 39.6797 24.1519C40.0965 23.0721 40.7301 22.0892 41.542 21.2642C42.3192 20.4793 43.2482 19.861 44.2725 19.4473C45.2967 19.0337 46.3947 18.833 47.499 18.858C48.6181 18.8401 49.7286 19.0519 50.7627 19.48C51.5022 19.7487 52.1784 20.1674 52.748 20.71L53.2881 21.3101V19.1231H56.9297V34.4063C56.9297 40.1277 54.0345 42.9883 48.2432 42.9883H48.207C47.3188 42.9906 46.4335 42.8923 45.5674 42.6954ZM44.1494 23.523C43.19 24.6253 42.6901 26.0543 42.7539 27.5142C42.6945 28.9687 43.2072 30.3887 44.1826 31.4693C44.6683 31.9796 45.258 32.3801 45.9111 32.6441C46.5643 32.9082 47.2659 33.0294 47.9697 33.0001C48.694 33.0327 49.4172 32.9168 50.0947 32.6588C50.7723 32.4008 51.3901 32.0062 51.9092 31.5001C52.4115 30.9691 52.8014 30.3425 53.0557 29.6573C53.31 28.972 53.423 28.2424 53.3887 27.5123C53.4183 26.7793 53.2994 26.0477 53.0391 25.3619C52.7787 24.676 52.3826 24.0498 51.874 23.5211C51.3576 23.0093 50.7411 22.6096 50.0635 22.3463C49.3858 22.0829 48.661 21.9617 47.9346 21.9903C47.23 21.9576 46.5276 22.0777 45.874 22.3428C45.2204 22.608 44.632 23.0116 44.1494 23.5259V23.523ZM0 42.6231V19.1231H3.63574V21.379C3.68174 21.311 3.75547 21.2174 3.85547 21.0924C4.06301 20.8666 4.2879 20.6577 4.52832 20.4674C4.88238 20.1699 5.26596 19.9098 5.67383 19.692C6.21019 19.4248 6.77485 19.2176 7.35645 19.0733C8.07377 18.8803 8.81284 18.7837 9.55566 18.7862C10.6598 18.7476 11.7603 18.9424 12.7842 19.3575C13.808 19.7726 14.7325 20.3988 15.498 21.1954C16.2816 22.0484 16.8892 23.0477 17.2852 24.1363C17.6811 25.2249 17.8572 26.381 17.8047 27.5382C17.8724 28.7206 17.7038 29.9049 17.3076 31.0211C16.9114 32.1373 16.2961 33.163 15.498 34.0382C14.7031 34.8296 13.7528 35.4479 12.707 35.8536C11.6612 36.2593 10.5425 36.4434 9.42188 36.3951C8.69551 36.3993 7.9714 36.3085 7.26855 36.1251C6.69031 35.9855 6.13537 35.7649 5.61914 35.4693C5.23409 35.2391 4.86305 34.9853 4.50879 34.71C4.25815 34.5266 4.03213 34.3122 3.83594 34.0714L3.63574 33.8013V42.6212L0 42.6231ZM5.0166 23.502C4.00269 24.6235 3.47066 26.0984 3.53418 27.609C3.49251 28.3629 3.60174 29.1178 3.85645 29.8287C4.11115 30.5396 4.50559 31.1922 5.0166 31.7481C5.54247 32.2634 6.16997 32.6643 6.8584 32.9254C7.54683 33.1864 8.28126 33.3022 9.0166 33.2652C9.71617 33.2969 10.4147 33.173 11.0605 32.9024C11.7064 32.6318 12.2839 32.2212 12.752 31.7003C13.7036 30.5683 14.1962 29.1206 14.1328 27.6431C14.1955 26.1363 13.684 24.662 12.7012 23.5181C12.2261 22.9905 11.6412 22.5739 10.9873 22.2974C10.3334 22.0209 9.62642 21.8913 8.91699 21.918C8.19112 21.8902 7.46752 22.0177 6.79492 22.2921C6.12233 22.5664 5.51587 22.9817 5.0166 23.5093V23.502ZM133.117 36.502C130.044 36.502 127.671 35.6993 125.999 34.0933C125.142 33.2272 124.477 32.1913 124.045 31.0523C123.613 29.9134 123.424 28.6964 123.49 27.48C123.446 26.2816 123.65 25.0871 124.091 23.9717C124.531 22.8564 125.198 21.8444 126.05 21.0001C126.903 20.1682 127.916 19.5175 129.027 19.0865C130.138 18.6555 131.325 18.4535 132.516 18.4923C133.747 18.426 134.98 18.6262 136.127 19.0792C137.274 19.5322 138.311 20.2273 139.165 21.1173C140.862 23.132 141.723 25.7197 141.571 28.3492V29.2242H128.842C128.845 29.3396 128.862 29.454 128.894 29.565C128.976 29.811 129.083 30.0479 129.214 30.272C129.393 30.6097 129.626 30.9167 129.902 31.1812C130.276 31.505 130.71 31.7515 131.18 31.9063C131.822 32.1304 132.499 32.2379 133.18 32.2242C134.024 32.2277 134.861 32.0619 135.64 31.7364C136.264 31.506 136.845 31.1703 137.356 30.7442L137.856 30.2393L140.62 33.4683C140.553 33.5563 140.456 33.6682 140.334 33.8062C140.062 34.0702 139.769 34.3124 139.459 34.5303C138.993 34.8818 138.496 35.1914 137.976 35.4561C137.306 35.7768 136.601 36.0198 135.876 36.1802C134.984 36.3936 134.07 36.5011 133.153 36.501L133.117 36.502ZM130.893 23.0342C130.481 23.1942 130.113 23.4476 129.816 23.775C129.585 24.045 129.381 24.3382 129.209 24.65C129.075 24.8787 128.984 25.1304 128.941 25.3922L128.873 25.692H136.18C136.158 25.609 136.137 25.4921 136.115 25.3741C136.044 25.1289 135.948 24.8917 135.828 24.6661C135.668 24.3331 135.459 24.0268 135.206 23.7574C134.893 23.4569 134.527 23.2171 134.127 23.0504C133.618 22.829 133.066 22.7202 132.511 22.732H132.428C131.901 22.7328 131.38 22.8366 130.894 23.0372L130.893 23.0342ZM89.543 35.6104C89.2551 35.3306 89.0263 34.9959 88.8701 34.626C88.714 34.2562 88.6336 33.8585 88.6338 33.4571C88.6334 33.0552 88.714 32.6575 88.8701 32.2872C89.0263 31.9169 89.255 31.5817 89.543 31.3013C89.8367 31.0152 90.1849 30.7904 90.5664 30.6402C90.9479 30.49 91.3547 30.4173 91.7646 30.4263C92.1748 30.418 92.5831 30.491 92.9648 30.6412C93.3466 30.7914 93.6947 31.0158 93.9893 31.3013C94.2765 31.5821 94.5046 31.9174 94.6602 32.2877C94.8158 32.6579 94.895 33.0555 94.8945 33.4571C94.8947 33.8582 94.8148 34.2553 94.6592 34.6251C94.5036 34.9948 94.2762 35.3301 93.9893 35.6104C93.3862 36.1736 92.5908 36.4865 91.7656 36.4854C90.9412 36.4869 90.1473 36.1752 89.5439 35.6133L89.543 35.6104ZM67.3232 36.4283C66.212 36.4701 65.1031 36.2923 64.0605 35.9053C63.018 35.5184 62.062 34.9301 61.2471 34.1734C60.4224 33.3218 59.785 32.3065 59.377 31.1934C58.9689 30.0804 58.7991 28.8939 58.8779 27.711C58.8255 26.5363 59.0131 25.3633 59.4297 24.2637C59.8463 23.1641 60.4831 22.161 61.3008 21.316C62.0754 20.5265 63.0037 19.9041 64.0283 19.4874C65.0529 19.0706 66.152 18.8685 67.2578 18.8931C68.3769 18.8753 69.4884 19.087 70.5225 19.5152C71.2612 19.7845 71.9364 20.2021 72.5078 20.7423L73.0469 21.3502V19.1944H76.6807V36.1622H73.0439V33.838C72.9989 33.906 72.9337 34.0001 72.8438 34.1221C72.6499 34.3495 72.436 34.5588 72.2041 34.7471C71.8658 35.0402 71.4996 35.2991 71.1104 35.5201C70.5985 35.7913 70.0557 36.0002 69.4941 36.1422C68.8067 36.3327 68.0962 36.4294 67.3828 36.4293L67.3232 36.4283ZM63.9082 23.5714C62.9403 24.7007 62.4392 26.1564 62.5078 27.6422C62.4468 29.1333 62.9598 30.5914 63.9404 31.7164C64.4178 32.2406 65.004 32.6535 65.6582 32.9268C66.3125 33.2001 67.0181 33.3272 67.7266 33.2984C68.4547 33.3353 69.1834 33.2193 69.8643 32.9586C70.5451 32.6978 71.1634 32.298 71.6807 31.7842C72.1869 31.2252 72.5775 30.5709 72.8291 29.8599C73.0807 29.1489 73.1893 28.3952 73.1475 27.6422C73.1803 26.8966 73.0624 26.1521 72.8018 25.4527C72.5412 24.7534 72.1427 24.1136 71.6299 23.5714C71.1167 23.0546 70.502 22.6499 69.8242 22.3834C69.1465 22.1169 68.421 21.9942 67.6934 22.023C66.9877 21.9898 66.2826 22.1115 65.6289 22.3795C64.9752 22.6474 64.3886 23.0554 63.9092 23.5743L63.9082 23.5714ZM27.8076 36.4283C26.6966 36.4708 25.5882 36.2933 24.5459 35.9063C23.5036 35.5193 22.5485 34.9307 21.7344 34.1734C20.9095 33.3217 20.2722 32.3064 19.8633 31.1934C19.4544 30.0805 19.2831 28.8942 19.3604 27.711C19.308 26.5363 19.4955 25.3633 19.9121 24.2637C20.3287 23.1641 20.9656 22.161 21.7832 21.316C22.5581 20.5268 23.4862 19.9051 24.5107 19.4883C25.5353 19.0716 26.6345 18.8689 27.7402 18.8931C28.8603 18.875 29.9718 19.0867 31.0068 19.5152C31.7447 19.7857 32.4204 20.2031 32.9922 20.7423L33.5293 21.3502V19.1944H37.165V36.1622H33.5293V33.838C33.4646 33.934 33.3978 34.0289 33.3291 34.1221C33.1355 34.3495 32.922 34.5587 32.6904 34.7471C32.3521 35.0402 31.9849 35.2991 31.5957 35.5201C31.0836 35.7908 30.5419 35.9997 29.9805 36.1422C29.2926 36.3327 28.5819 36.4293 27.8682 36.4293L27.8076 36.4283ZM24.3896 23.5714C23.4222 24.7007 22.9236 26.1569 22.9951 27.6422C22.9332 29.1329 23.4442 30.591 24.4238 31.7164C24.901 32.2409 25.4873 32.654 26.1416 32.9273C26.7959 33.2006 27.5024 33.3276 28.2109 33.2984C28.9391 33.3349 29.6668 33.2188 30.3477 32.9581C31.0285 32.6974 31.6475 32.2977 32.165 31.7842C32.6713 31.2253 33.0613 30.571 33.3125 29.8599C33.5637 29.1488 33.6708 28.3951 33.6279 27.6422C33.6614 26.8967 33.5445 26.1521 33.2842 25.4527C33.0239 24.7533 32.6259 24.1136 32.1133 23.5714C31.6002 23.0545 30.9854 22.6499 30.3076 22.3834C29.6298 22.1169 28.9035 21.994 28.1758 22.023C27.4698 21.9895 26.7654 22.111 26.1113 22.379C25.4573 22.6469 24.8692 23.055 24.3896 23.5743V23.5714ZM117.13 36.1612V25.5611C117.13 23.7884 116.478 22.9024 115.176 22.9024C113.56 22.9024 112.752 24.0801 112.753 26.4361V36.1651H107.637V25.565C107.637 23.7923 106.986 22.9063 105.685 22.9063C104.069 22.9063 103.261 24.084 103.262 26.44V36.169H98.1465V18.8692H103.262V21.1241C103.308 21.0561 103.362 20.9681 103.433 20.8541C103.58 20.6423 103.744 20.4417 103.921 20.254C104.176 19.9647 104.464 19.7056 104.778 19.482C105.171 19.2181 105.6 19.0134 106.053 18.8741C106.606 18.6918 107.186 18.6015 107.769 18.607C108.351 18.5997 108.932 18.6855 109.488 18.8604C109.929 18.9919 110.344 19.1974 110.716 19.4683C110.988 19.6757 111.242 19.9065 111.475 20.1583C111.645 20.341 111.793 20.5442 111.913 20.7633L112.013 20.9981C112.056 20.9301 112.118 20.8482 112.198 20.7432C112.372 20.5427 112.557 20.3518 112.753 20.1719C113.042 19.8944 113.358 19.6465 113.695 19.4312C114.116 19.1807 114.569 18.9888 115.042 18.8604C115.609 18.6889 116.199 18.6023 116.792 18.6041C120.428 18.6041 122.246 20.7023 122.246 24.899V36.1773L117.13 36.1612ZM79.5449 36.1612V19.1612H83.1807V22.2242C83.2182 22.0962 83.2688 21.9721 83.3311 21.8541C83.4944 21.5634 83.6747 21.2827 83.8711 21.0133C84.1369 20.6258 84.4524 20.2754 84.8105 19.9713C85.2529 19.6292 85.7488 19.3617 86.2773 19.1793C86.9228 18.9421 87.611 18.8451 88.2969 18.8951L87.9971 22.8331C87.3635 22.7309 86.7146 22.7766 86.1016 22.9664C85.4885 23.1561 84.9279 23.485 84.4629 23.9273C84.0219 24.4027 83.682 24.9621 83.4629 25.5723C83.2438 26.1826 83.1506 26.8308 83.1885 27.4781V36.1622L79.5449 36.1612Z" fill="#1B1C29"/>
<path d="M6.7531 49.18V54.406C6.7706 54.7733 6.70814 55.14 6.57001 55.4809C6.43189 55.8217 6.2214 56.1285 5.95311 56.38C5.36446 56.8857 4.60421 57.1462 3.82911 57.108C3.05394 57.1482 2.2926 56.8914 1.7001 56.39C1.43214 56.1353 1.22272 55.8254 1.08631 55.4818C0.949911 55.1382 0.889792 54.7691 0.910106 54.4V49.18H2.2641V54.411C2.23406 54.848 2.37782 55.2793 2.6641 55.611C2.82023 55.7569 3.00484 55.869 3.20636 55.9403C3.40787 56.0115 3.62192 56.0404 3.8351 56.025C4.88044 56.025 5.4031 55.4736 5.4031 54.371V49.18H6.7531ZM10.2291 49.18L12.4851 55.174L14.7351 49.18H16.4911V57H15.1371V54.422L15.2711 50.974L12.9621 57H11.9901L9.6901 50.979L9.8241 54.422V57H8.4701V49.18H10.2291ZM22.7391 55.18H19.7101L19.0761 57H17.6631L20.6171 49.18H21.8361L24.8001 57H23.3821L22.7391 55.18ZM20.0911 54.08H22.3581L21.2251 50.836L20.0911 54.08ZM33.5201 53.505H30.3081V55.911H34.0621V57H28.9491V49.18H34.0251V50.28H30.3081V52.439H33.5201V53.505ZM37.1951 49.176L39.4511 55.17L41.7001 49.18H43.4561V57H42.1001V54.422L42.2341 50.974L39.9291 57H38.9571L36.6571 50.979L36.7911 54.422V57H35.4371V49.18L37.1951 49.176ZM46.6871 54.091V57H45.3281V49.18H48.3201C49.0746 49.1396 49.8169 49.3829 50.4011 49.862C50.6546 50.0864 50.8552 50.3642 50.9885 50.6755C51.1218 50.9867 51.1845 51.3236 51.1721 51.662C51.1903 51.9979 51.1318 52.3336 51.001 52.6436C50.8702 52.9535 50.6705 53.2296 50.4171 53.451C49.8116 53.9101 49.0615 54.1369 48.3031 54.09L46.6871 54.091ZM46.6871 53.001H48.3201C48.7183 53.0285 49.1125 52.907 49.4261 52.66C49.5576 52.5333 49.6599 52.3794 49.7257 52.2091C49.7915 52.0388 49.8193 51.8561 49.8071 51.674C49.8159 51.4877 49.786 51.3017 49.7194 51.1275C49.6528 50.9533 49.5509 50.7948 49.4201 50.662C49.1307 50.3976 48.7488 50.2579 48.3571 50.273H46.6871V53.001ZM55.4961 53.984H53.9811V57H52.6221V49.18H55.3721C56.118 49.1321 56.857 49.3469 57.4611 49.787C57.7112 50.003 57.908 50.2739 58.0361 50.5785C58.1643 50.883 58.2204 51.2131 58.2001 51.543C58.2164 52.0098 58.0836 52.4696 57.8211 52.856C57.553 53.2211 57.1873 53.5032 56.7661 53.67L58.5201 56.93V57H57.0641L55.4961 53.984ZM53.9811 52.9H55.3811C55.7698 52.9234 56.1531 52.7999 56.4551 52.554C56.5851 52.4339 56.6871 52.2868 56.754 52.123C56.8209 51.9592 56.851 51.7827 56.8421 51.606C56.8532 51.428 56.8272 51.2498 56.7658 51.0824C56.7043 50.9151 56.6087 50.7624 56.4851 50.634C56.1882 50.3839 55.8066 50.2572 55.4191 50.28H53.9851L53.9811 52.9ZM64.3211 53.512H61.1091V55.918H64.8631V57H59.7501V49.18H64.8261V50.28H61.1091V52.439H64.3211V53.512ZM70.3211 54.989C70.3292 54.837 70.3003 54.6853 70.2371 54.5469C70.1739 54.4085 70.0782 54.2874 69.9581 54.194C69.5559 53.9356 69.1141 53.745 68.6501 53.63C68.1248 53.4842 67.6206 53.2711 67.1501 52.996C66.8299 52.8274 66.5612 52.5754 66.3725 52.2666C66.1838 51.9579 66.0821 51.6038 66.0781 51.242C66.0739 50.9397 66.1416 50.6408 66.2756 50.3699C66.4097 50.099 66.6063 49.8639 66.8491 49.684C67.4255 49.2559 68.1319 49.0398 68.8491 49.072C69.3507 49.0626 69.8481 49.1651 70.3051 49.372C70.7121 49.5583 71.0586 49.8552 71.3051 50.229C71.5468 50.5944 71.674 51.0238 71.6701 51.462H70.3211C70.3313 51.2833 70.3021 51.1046 70.2358 50.9384C70.1694 50.7722 70.0675 50.6225 69.9371 50.5C69.6269 50.2506 69.2342 50.1271 68.8371 50.154C68.4704 50.1315 68.1066 50.2318 67.8031 50.439C67.6823 50.5321 67.5858 50.653 67.5218 50.7914C67.4577 50.9298 67.428 51.0816 67.4351 51.234C67.4364 51.3774 67.4738 51.5182 67.5437 51.6435C67.6135 51.7687 67.7138 51.8745 67.8351 51.951C68.2402 52.2046 68.6826 52.3932 69.1461 52.51C69.6597 52.651 70.1523 52.8595 70.6111 53.13C70.9428 53.3241 71.2214 53.5972 71.4221 53.925C71.5996 54.2459 71.6886 54.6083 71.6801 54.975C71.6901 55.2754 71.6272 55.5737 71.4968 55.8445C71.3663 56.1153 71.1722 56.3505 70.9311 56.53C70.3372 56.943 69.6225 57.146 68.9001 57.107C68.3638 57.113 67.8323 57.006 67.3401 56.793C66.8994 56.61 66.517 56.3102 66.2341 55.926C65.9684 55.5494 65.83 55.0977 65.8391 54.637H67.2001C67.1893 54.8311 67.2234 55.0251 67.2997 55.2039C67.376 55.3827 67.4925 55.5415 67.6401 55.668C68.0046 55.9331 68.4504 56.0622 68.9001 56.033C69.277 56.06 69.6519 55.9588 69.9641 55.746C70.0792 55.6563 70.1716 55.5408 70.2336 55.4087C70.2956 55.2766 70.3256 55.1318 70.3211 54.986V54.989ZM77.5141 55.182H74.4851L73.8511 57H72.4381L75.3931 49.18H76.6121L79.5711 57H78.1531L77.5141 55.182ZM74.8661 54.082H77.1331L76.0001 50.839L74.8661 54.082ZM87.8121 54.982C87.8202 54.83 87.7913 54.6783 87.7281 54.5399C87.6649 54.4015 87.5692 54.2804 87.4491 54.187C87.047 53.9286 86.6051 53.738 86.1411 53.623C85.6158 53.4772 85.1116 53.2641 84.6411 52.989C84.3219 52.8202 84.0541 52.5685 83.866 52.2604C83.6778 51.9522 83.5763 51.599 83.5721 51.238C83.5679 50.9357 83.6356 50.6368 83.7696 50.3659C83.9037 50.095 84.1003 49.8599 84.3431 49.68C84.9195 49.2519 85.6259 49.0358 86.3431 49.068C86.8447 49.0586 87.3421 49.1611 87.7991 49.368C88.2061 49.5543 88.5527 49.8512 88.7991 50.225C89.0408 50.5904 89.1679 51.0198 89.1641 51.458H87.8121C87.8218 51.2798 87.7925 51.1016 87.7261 50.936C87.6598 50.7704 87.5581 50.6212 87.4281 50.499C87.1179 50.2496 86.7252 50.1261 86.3281 50.153C85.9614 50.1305 85.5976 50.2308 85.2941 50.438C85.1733 50.5311 85.0768 50.652 85.0128 50.7904C84.9487 50.9288 84.919 51.0806 84.9261 51.233C84.9274 51.3764 84.9648 51.5172 85.0347 51.6425C85.1045 51.7677 85.2048 51.8735 85.3261 51.95C85.7312 52.2036 86.1736 52.3922 86.6371 52.509C87.15 52.6505 87.642 52.8593 88.1001 53.13C88.4318 53.3241 88.7104 53.5972 88.9111 53.925C89.0886 54.2459 89.1777 54.6083 89.1691 54.975C89.1793 55.2752 89.1167 55.5735 88.9867 55.8442C88.8566 56.115 88.6629 56.3503 88.4221 56.53C87.8276 56.9434 87.1121 57.1465 86.3891 57.107C85.8528 57.113 85.3213 57.006 84.8291 56.793C84.3884 56.61 84.006 56.3102 83.7231 55.926C83.4574 55.5494 83.319 55.0977 83.3281 54.637H84.6871C84.6763 54.8311 84.7104 55.0251 84.7867 55.2039C84.863 55.3827 84.9795 55.5415 85.1271 55.668C85.4921 55.9335 85.9387 56.0627 86.3891 56.033C86.7666 56.0604 87.1424 55.9593 87.4551 55.746C87.5702 55.6563 87.6626 55.5408 87.7246 55.4087C87.7866 55.2766 87.8166 55.1318 87.8121 54.986V54.982ZM96.2781 50.272H93.8391V57H92.4911V50.275H90.0741V49.175H96.2741L96.2781 50.272ZM103.659 53.291C103.673 53.9843 103.537 54.6724 103.259 55.308C103.022 55.8557 102.627 56.3204 102.125 56.643C101.615 56.9579 101.025 57.1193 100.425 57.108C99.8273 57.1179 99.2391 56.9566 98.7301 56.643C98.2258 56.3235 97.8263 55.8632 97.5811 55.319C97.3002 54.6965 97.1598 54.0198 97.1701 53.337V52.9C97.1562 52.2051 97.2948 51.5155 97.5761 50.88C97.8172 50.3304 98.2152 49.8643 98.7201 49.54C99.2288 49.2255 99.8172 49.064 100.415 49.075C101.012 49.0638 101.6 49.223 102.11 49.534C102.612 49.8515 103.009 50.3104 103.25 50.853C103.53 51.484 103.67 52.1686 103.658 52.859L103.659 53.291ZM102.3 52.886C102.344 52.187 102.173 51.4913 101.809 50.893C101.654 50.6687 101.445 50.4875 101.201 50.3663C100.957 50.2451 100.686 50.1878 100.414 50.2C100.145 50.1897 99.8774 50.2475 99.6366 50.3681C99.3957 50.4887 99.1891 50.6682 99.0361 50.89C98.6704 51.4731 98.4931 52.1546 98.5281 52.842V53.293C98.4848 53.993 98.6594 54.6893 99.0281 55.286C99.1826 55.5107 99.3914 55.6928 99.6351 55.8152C99.8788 55.9376 100.15 55.9963 100.422 55.986C100.693 55.9991 100.963 55.943 101.207 55.823C101.45 55.703 101.659 55.523 101.814 55.3C102.176 54.6962 102.346 53.9965 102.3 53.294V52.886ZM111.48 57H110.121L106.635 51.452V57H105.276V49.18H106.635L110.135 54.75V49.18H111.48V57ZM117.92 53.509H114.709V55.915H118.463V57H113.35V49.18H118.426V50.28H114.709V52.439H117.92V53.509ZM128.8 54.454C128.764 55.2008 128.433 55.9027 127.88 56.406C127.277 56.8958 126.513 57.1451 125.737 57.106C125.157 57.1177 124.587 56.9641 124.091 56.663C123.609 56.3597 123.227 55.9216 122.991 55.403C122.722 54.8058 122.586 54.1577 122.591 53.503V52.773C122.577 52.1021 122.711 51.4364 122.983 50.823C123.221 50.2877 123.613 49.8352 124.108 49.523C124.618 49.2152 125.205 49.0588 125.8 49.072C126.558 49.0348 127.302 49.2847 127.884 49.772C128.435 50.2927 128.763 51.006 128.8 51.763H127.45C127.433 51.3124 127.26 50.8819 126.959 50.546C126.636 50.276 126.22 50.1423 125.8 50.173C125.537 50.1594 125.275 50.2114 125.037 50.3244C124.8 50.4373 124.594 50.6076 124.438 50.82C124.083 51.3877 123.913 52.0516 123.952 52.72V53.413C123.909 54.0883 124.067 54.7612 124.406 55.347C124.551 55.5634 124.75 55.7385 124.983 55.8552C125.216 55.972 125.475 56.0263 125.735 56.013C126.166 56.0445 126.593 55.9163 126.935 55.653C127.243 55.3268 127.424 54.9011 127.445 54.453L128.8 54.454ZM136.519 53.294C136.533 53.9873 136.397 54.6754 136.119 55.311C135.883 55.8569 135.49 56.3205 134.99 56.643C134.48 56.9579 133.89 57.1193 133.29 57.108C132.694 57.117 132.108 56.9556 131.6 56.643C131.096 56.3235 130.696 55.8632 130.451 55.319C130.17 54.6965 130.03 54.0198 130.04 53.337V52.9C130.026 52.2051 130.165 51.5155 130.446 50.88C130.687 50.3304 131.085 49.8643 131.59 49.54C132.099 49.2255 132.687 49.064 133.285 49.075C133.882 49.0638 134.47 49.223 134.98 49.534C135.483 49.8519 135.88 50.3116 136.121 50.855C136.401 51.486 136.541 52.1706 136.529 52.861L136.519 53.294ZM135.16 52.886C135.204 52.187 135.033 51.4913 134.669 50.893C134.515 50.6695 134.306 50.4887 134.063 50.3675C133.82 50.2463 133.55 50.1887 133.279 50.2C133.01 50.1897 132.742 50.2475 132.502 50.3681C132.261 50.4887 132.054 50.6682 131.901 50.89C131.535 51.4731 131.358 52.1546 131.393 52.842V53.293C131.35 53.993 131.524 54.6893 131.893 55.286C132.048 55.5107 132.256 55.6928 132.5 55.8152C132.744 55.9376 133.015 55.9963 133.287 55.986C133.558 55.9989 133.828 55.9428 134.071 55.8228C134.315 55.7028 134.523 55.5229 134.678 55.3C135.041 54.6953 135.21 53.9945 135.164 53.291L135.16 52.886ZM138.169 55.625C138.272 55.6185 138.376 55.6335 138.473 55.6692C138.57 55.7048 138.659 55.7602 138.733 55.832C138.799 55.9007 138.851 55.9819 138.885 56.0708C138.92 56.1598 138.936 56.2547 138.933 56.35C138.936 56.4438 138.92 56.5372 138.885 56.6245C138.851 56.7118 138.799 56.7912 138.733 56.858C138.658 56.9279 138.569 56.9817 138.472 57.0161C138.375 57.0504 138.272 57.0647 138.169 57.058C138.068 57.0631 137.967 57.048 137.872 57.0137C137.777 56.9793 137.69 56.9264 137.616 56.858C137.549 56.7914 137.497 56.7117 137.463 56.624C137.428 56.5362 137.412 56.4422 137.416 56.348C137.413 56.2527 137.43 56.1578 137.464 56.0688C137.498 55.9799 137.55 55.8987 137.616 55.83C137.69 55.7591 137.777 55.7043 137.873 55.669C137.969 55.6337 138.071 55.6187 138.173 55.625H138.169Z" fill="#454550"/>
</g>
<defs>
<clipPath id="clip0">
<rect width="160" height="57.107" fill="white"/>
</clipPath>
</defs>
</svg>
